<?xml version="1.0" encoding="UTF-8" standalone="no"?>
<svg width="78px" height="78px" viewBox="0 0 78 78" version="1.1" xmlns="http://www.w3.org/2000/svg" xmlns:xlink="http://www.w3.org/1999/xlink">
    <!-- Generator: Sketch 3.6.1 (26313) - http://www.bohemiancoding.com/sketch -->
    <title>Group 4 Copy</title>
    <desc>Created with Sketch.</desc>
    <defs>
        <filter x="-50%" y="-50%" width="200%" height="200%" filterUnits="objectBoundingBox" id="filter-1">
            <feOffset dx="0" dy="10" in="SourceAlpha" result="shadowOffsetOuter1"></feOffset>
            <feGaussianBlur stdDeviation="10" in="shadowOffsetOuter1" result="shadowBlurOuter1"></feGaussianBlur>
            <feColorMatrix values="0 0 0 0 0   0 0 0 0 0   0 0 0 0 0  0 0 0 0.14 0" in="shadowBlurOuter1" type="matrix" result="shadowMatrixOuter1"></feColorMatrix>
            <feMerge>
                <feMergeNode in="shadowMatrixOuter1"></feMergeNode>
                <feMergeNode in="SourceGraphic"></feMergeNode>
            </feMerge>
        </filter>
    </defs>
    <g id="Home" stroke="none" stroke-width="1" fill="none" fill-rule="evenodd" filter="url(#filter-1)">
        <g id="Desktop-HD-Copy-5" transform="translate(-100.000000, -552.000000)">
            <g id="Group-4-Copy" transform="translate(119.000000, 561.000000)">
                <path d="M20,40 C31.045695,40 40,31.045695 40,20 C40,8.954305 31.045695,0 20,0 C8.954305,0 0,8.954305 0,20 C0,31.045695 8.954305,40 20,40 Z" id="circle" fill="#FFFFFF"></path>
                <path d="M20.1730057,19.9985672 L13.5857864,26.5857864 C12.8047379,27.366835 12.8047379,28.633165 13.5857864,29.4142136 C14.366835,30.1952621 15.633165,30.1952621 16.4142136,29.4142136 L24.4142136,21.4142136 C25.1952621,20.633165 25.1952621,19.366835 24.4142136,18.5857864 L16.4142136,10.5857864 C15.633165,9.80473785 14.366835,9.80473785 13.5857864,10.5857864 C12.8047379,11.366835 12.8047379,12.633165 13.5857864,13.4142136 L20.1730057,19.9985672 Z" id="arrow" fill="#000000" transform="translate(19.000000, 20.000000) scale(-1, 1) translate(-19.000000, -20.000000) "></path>
            </g>
        </g>
    </g>
</svg>