<?xml version="1.0" encoding="UTF-8" standalone="no"?>
<svg width="44px" height="44px" viewBox="0 0 44 44" version="1.1" xmlns="http://www.w3.org/2000/svg" xmlns:xlink="http://www.w3.org/1999/xlink">
    <!-- Generator: Sketch 3.6.1 (26313) - http://www.bohemiancoding.com/sketch -->
    <title>Group 4</title>
    <desc>Created with Sketch.</desc>
    <defs></defs>
    <g id="Home" stroke="none" stroke-width="1" fill="none" fill-rule="evenodd">
        <g id="Desktop-HD-Copy-5" transform="translate(-117.000000, -498.000000)">
            <g id="Group-4" transform="translate(119.000000, 500.000000)">
                <path d="M20,40 C31.045695,40 40,31.045695 40,20 C40,8.954305 31.045695,0 20,0 C8.954305,0 0,8.954305 0,20 C0,31.045695 8.954305,40 20,40 Z" id="circle" stroke-opacity="0.1" stroke="#000000" stroke-width="2" fill="#FFFFFF"></path>
                <path d="M22.1730057,19.9985672 L15.5857864,26.5857864 C14.8047379,27.366835 14.8047379,28.633165 15.5857864,29.4142136 C16.366835,30.1952621 17.633165,30.1952621 18.4142136,29.4142136 L26.4142136,21.4142136 C27.1952621,20.633165 27.1952621,19.366835 26.4142136,18.5857864 L18.4142136,10.5857864 C17.633165,9.80473785 16.366835,9.80473785 15.5857864,10.5857864 C14.8047379,11.366835 14.8047379,12.633165 15.5857864,13.4142136 L22.1730057,19.9985672 Z" id="arrow" fill="#000000"></path>
            </g>
        </g>
    </g>
</svg>