<?xml version="1.0" encoding="UTF-8" standalone="no"?>
<svg width="55px" height="51px" viewBox="0 0 55 51" version="1.1" xmlns="http://www.w3.org/2000/svg" xmlns:xlink="http://www.w3.org/1999/xlink" xmlns:sketch="http://www.bohemiancoding.com/sketch/ns">
  <g id="Imported-Layers-2" sketch:type="MSLayerGroup" >
      <path d="M53.5757806,31.2087931 L53.5676516,31.2059195 C52.7071355,31.0961494 52.467329,31.2266092 52.3186839,31.453046 C52.1462323,31.6582184 51.9662323,31.8564943 51.7792645,32.049023 C51.4018452,32.4300575 51.0203613,32.799023 50.6162323,33.1340805 C49.8114581,33.807069 48.9596516,34.3823563 48.0654581,34.8254598 C47.1735871,35.2748851 46.2242323,35.5679885 45.2516516,35.6961494 C44.7766839,35.7628161 44.2500387,35.7858046 43.8035226,35.7760345 L43.4173935,35.7605172 C43.3035871,35.7547701 43.1944258,35.7438506 43.0875871,35.7317816 C42.8744903,35.7059195 42.6782323,35.6656897 42.5034581,35.6156897 C42.1504258,35.5156897 41.9199097,35.3668391 41.8008774,35.2306322 C41.6830065,35.0932759 41.6168129,34.9518966 41.5715226,34.6915517 C41.4733935,34.1714368 41.6475871,33.2967241 41.9924903,32.4927011 C42.0035226,32.4656897 42.0192,32.4398276 42.0302323,32.4128161 C42.7235226,32.340977 43.4278452,32.2312069 44.1861677,31.9915517 C44.6460387,31.8312069 45.123329,31.6651149 45.7103613,31.2346552 C45.9960387,31.0105172 46.3601032,30.7162644 46.6626194,30.0955747 C46.8089419,29.7886782 46.9163613,29.3840805 46.9122968,28.9697126 C46.9117161,28.5541954 46.8019742,28.1662644 46.6655226,27.8720115 C46.6446194,27.8271839 46.6208129,27.7806322 46.5952645,27.7363793 L46.5801677,27.711092 C46.3241032,27.2674138 45.933329,26.7346552 45.2446839,26.3317816 C44.5618452,25.9162644 43.6421032,25.8162644 42.9929419,25.949023 C42.3240387,26.0691379 41.8380387,26.3185632 41.4379742,26.5697126 C41.0367484,26.8248851 40.7144903,27.0967241 40.4259097,27.3743103 C39.849329,27.9266092 39.4179097,28.5156897 39.0422323,29.1231609 C38.8517806,29.4312069 38.681071,29.7461494 38.5272,30.0691379 C37.923329,30.2174138 37.311329,30.3432759 36.6952645,30.4214368 C35.7116516,30.540977 34.7088774,30.5737356 33.7351355,30.5024713 C33.6004258,30.2478736 33.4541032,30.0087931 33.2967484,29.7892529 C32.5750065,28.7892529 31.7255226,28.0679885 30.8458452,27.4593678 L30.6106839,27.2972989 L30.5404258,27.2524713 C29.969071,26.9151149 29.2287484,27.1001724 28.889071,27.6656897 L28.8867484,27.6697126 C28.6510065,28.1283333 28.3548774,28.6737356 28.3734581,29.4691379 C28.3804258,29.8582184 28.5215226,30.2754598 28.7322968,30.5817816 C28.9453935,30.8881034 29.1921677,31.1024713 29.4267484,31.2622414 C29.8662968,31.5541954 30.2808774,31.6927011 30.6768774,31.8128161 C30.7517806,32.0099425 30.8110065,32.1967241 30.8278452,32.3559195 C30.8557161,32.6076437 30.813329,32.7766092 30.7558452,32.9243103 C30.6437806,33.2013218 30.2663613,33.5754598 29.661329,33.8771839 C29.0626839,34.1679885 28.3095871,34.3616667 27.5959742,34.4139655 C26.8724903,34.4737356 26.2465548,34.3559195 25.9092,34.1651149 C25.5788129,33.9777586 25.377329,33.7518966 25.2670065,33.228908 C25.1578452,32.7179885 25.2594581,32.0162644 25.5288774,31.3231609 C25.7982968,30.6231609 26.2390065,29.9312069 26.7726194,29.2576437 L26.7749419,29.2541954 L27.1215871,28.7260345 C27.3346839,28.3995977 27.3660387,27.9714368 27.1680387,27.6041954 C26.8765548,27.0662644 26.2001032,26.8645402 25.6566194,27.1524713 C24.4488774,27.7932759 23.1859742,28.1955747 21.905071,28.5633908 C21.1194581,28.7875287 20.337329,29.0294828 19.5569419,29.2783333 C19.8803613,28.2731609 20.1939097,27.2656897 20.4946839,26.2547701 C21.2257161,23.6921264 21.8772,21.1093678 22.4369419,18.4972989 C22.9943613,15.8852299 23.4902323,13.2467241 23.6557161,10.5214368 C23.7375871,9.15649425 23.7579097,7.77948276 23.6719742,6.34270115 C23.6214581,5.62028736 23.5651355,4.88867816 23.4147484,4.08752874 C23.3369419,3.68522989 23.2388129,3.26396552 23.0692645,2.78810345 C22.8735871,2.31396552 22.6901032,1.74729885 21.9526839,1.05764368 C21.7680387,0.894425287 21.5317161,0.726609195 21.2599742,0.594425287 C21.1281677,0.527183908 20.9748774,0.474310345 20.8291355,0.424310345 C20.6619097,0.369712644 20.4209419,0.322011494 20.2304903,0.30362069 L19.5534581,0.266264368 C19.1934581,0.25362069 18.8317161,0.243275862 18.4688129,0.246149425 C17.7441677,0.251896552 17.0113935,0.269137931 16.2768774,0.330632184 C14.8084258,0.449022989 13.317329,0.695 11.8581677,1.14097701 C8.93694194,2.01166667 6.19223226,3.81166667 4.25578065,6.26798851 C2.28855484,8.68982759 0.99836129,11.6432759 0.642425806,14.6886782 C0.281264516,17.7317816 0.831716129,20.8237356 2.12249032,23.4771839 C2.76642581,24.8059195 3.58165161,26.028908 4.51649032,27.1191379 C4.9868129,27.6628161 5.4855871,28.1748851 6.00700645,28.6541954 C6.26829677,28.8938506 6.53539355,29.1237356 6.80597419,29.3484483 C6.93836129,29.4628161 7.1235871,29.5260345 7.38197419,29.5156897 C7.50507097,29.5162644 7.6635871,29.4766092 7.81571613,29.432931 L8.09152258,29.3191379 L8.23029677,29.2622414 L8.39868387,29.1731609 L8.47707097,29.0013218 L8.52584516,28.8605172 L8.62223226,28.5800575 C8.65300645,28.4254598 8.69365161,28.2714368 8.69887742,28.1587931 C8.7192,27.9231609 8.67332903,27.7536207 8.57345806,27.636954 C8.38532903,27.3932759 8.2035871,27.1472989 8.02997419,26.8967241 C7.68274839,26.3961494 7.36687742,25.8806322 7.08526452,25.3536207 C6.51797419,24.303046 6.0848129,23.2076437 5.79216774,22.0984483 C5.20455484,19.8794828 5.17203871,17.6087931 5.66965161,15.5024713 C6.15623226,13.3978736 7.14855484,11.4432759 8.5868129,9.88293103 C10.0453935,8.34212644 11.7879097,7.1041954 13.7876516,6.12143678 C14.7886839,5.63465517 15.8646194,5.2266092 16.9986194,4.94614943 C17.5659097,4.81224138 18.1448129,4.68810345 18.7341677,4.61856322 C18.8218452,4.60649425 18.9101032,4.60074713 18.9972,4.5904023 C19.0024258,4.63637931 19.0082323,4.67775862 19.0122968,4.72603448 C19.0506194,5.21626437 19.0500387,5.7904023 19.0117161,6.37143678 C18.9379742,7.54270115 18.7643613,8.77028736 18.5785548,9.99902299 C18.1912645,12.4605172 17.8057161,14.9702874 17.3191355,17.4685632 C16.8302323,19.9679885 16.2495871,22.4587931 15.5917161,24.9266092 C15.0232645,27.0961494 14.3955871,29.257069 13.6999742,31.3858046 C12.6495871,31.8214368 11.6067484,32.2852299 10.5824903,32.8087931 C8.15945806,34.0599425 5.7915871,35.5743103 3.80171613,37.6674138 C2.8035871,38.7064943 1.90765161,39.8978736 1.22597419,41.2898276 C0.568103226,42.6783333 0.0745548387,44.3162644 0.385780645,46.1840805 C0.550683871,47.1041954 0.958877419,48.0892529 1.73287742,48.8835057 C2.49236129,49.6852299 3.62287742,50.1944253 4.70113548,50.2697126 C5.24113548,50.3151149 5.76429677,50.2697126 6.25029677,50.1668391 C6.3548129,50.1472989 6.53829677,50.099023 6.62945806,50.0743103 L6.68868387,50.057069 L6.71829677,50.049023 L6.86694194,50.0001724 L7.03416774,49.9375287 C7.25887742,49.8541954 7.47139355,49.7593678 7.67229677,49.657069 C8.48229677,49.2467241 9.1448129,48.7415517 9.72603871,48.2156897 C10.8844258,47.157069 11.7722323,46.011092 12.5694581,44.8421264 C13.3579742,43.6697126 14.0501032,42.4720115 14.687071,41.2616667 C16.3117161,38.1541954 17.6141032,34.9622414 18.7411355,31.7254598 C18.7707484,31.7128161 18.7992,31.6984483 18.8282323,31.6858046 C20.0028774,31.1766092 21.2082968,30.7340805 22.4206839,30.3087931 C21.923071,31.2300575 21.5950065,32.3105172 21.6362323,33.5317816 C21.6745548,34.245 21.8557161,35.0082184 22.2505548,35.7053448 C22.6361032,36.4053448 23.2335871,37.0093678 23.9001677,37.4202874 C25.2600387,38.2472989 26.6901677,38.345 27.9106839,38.2518966 C29.1544258,38.1398276 30.3366194,37.8076437 31.4717806,37.1766092 C32.0355871,36.8576437 32.5959097,36.4616667 33.0882968,35.9214368 C33.5789419,35.386954 34.0051355,34.6881034 34.2101032,33.8972989 C34.3488774,33.3817816 34.3674581,32.8495977 34.3134581,32.3472989 C35.1402968,32.4024713 35.961329,32.4312069 36.7875871,32.4599425 C37.0999742,32.4691379 37.4129419,32.4783333 37.7264903,32.4881034 C37.6852645,32.7105172 37.6481032,32.9352299 37.6237161,33.1674138 C37.5459097,33.9225862 37.5552,34.7404023 37.7880387,35.6059195 C38.0110065,36.4633908 38.5312645,37.3766092 39.2866839,38.0059195 C40.0368774,38.6421264 40.9066839,38.9691379 41.6847484,39.1237356 C42.0772645,39.2018966 42.4581677,39.2427011 42.8251355,39.2587931 C43.0080387,39.2656897 43.1892,39.2691379 43.3668774,39.2656897 L43.6351355,39.2564943 L43.8528774,39.2444253 C44.5688129,39.1978736 45.2034581,39.1082184 45.8712,38.9587931 C47.1852,38.6639655 48.4504258,38.153046 49.5786194,37.4599425 C50.7085548,36.7651149 51.6881032,35.8794828 52.4806839,34.8800575 C52.8766839,34.3794828 53.2372645,33.8582184 53.5403613,33.3059195 C53.6936516,33.0306322 53.8376516,32.7518966 53.9723613,32.4674138 C54.1285548,32.2041954 54.1813935,31.8358046 53.5757806,31.2087931 M10.6597161,39.3036207 C10.1365548,40.4335057 9.56984516,41.5312069 8.94855484,42.5622414 C8.32552258,43.5852299 7.65197419,44.5639655 6.91397419,45.3202874 C6.54874839,45.699023 6.16842581,46.011092 5.81713548,46.2202874 C5.73003871,46.2731609 5.64410323,46.3191379 5.5628129,46.3564943 L5.51229677,46.3806322 L5.50300645,46.3835057 L5.40255484,46.4116667 C5.24694194,46.4513218 5.1075871,46.4662644 4.98971613,46.4616667 C4.75397419,46.449023 4.6035871,46.3904023 4.4468129,46.2507471 C4.2912,46.1116667 4.14023226,45.8541954 4.06300645,45.4972989 C3.89810323,44.7766092 4.07868387,43.7587931 4.51590968,42.7978736 C4.94907097,41.8237356 5.61739355,40.8794828 6.38790968,39.9904023 C7.9568129,38.2231609 9.92171613,36.6593678 12.0370065,35.2812069 C12.1601032,35.2018966 12.2890065,35.1283333 12.4132645,35.0495977 C11.8686194,36.4932759 11.2891355,37.9162644 10.6597161,39.3036207" id="Fill-1" sketch:type="MSShapeGroup"></path>
  </g>
</svg>
