<?xml version="1.0" encoding="UTF-8" standalone="no"?>
<svg width="50px" height="50px" viewBox="0 0 50 50" version="1.1" xmlns="http://www.w3.org/2000/svg" xmlns:xlink="http://www.w3.org/1999/xlink" xmlns:sketch="http://www.bohemiancoding.com/sketch/ns">
            <path fill="#000000" d="M48.9423188,27 C47.9434223,39.8720032 37.3861819,50 24.5098039,50 C10.973413,50 0,38.8071187 0,25 C0,11.1928813 10.973413,0 24.5098039,0 C37.3861819,0 47.9434223,10.1279968 48.9423188,23 L21.5686275,23 L27.0260333,17.433446 C27.8021807,16.6417756 27.8076247,15.3637772 27.0296957,14.5702896 L26.8918729,14.4297104 C26.1177482,13.6401032 24.8620027,13.6407572 24.0855332,14.4327562 L15.6862745,23 L13.7254902,25 L15.6862745,27 L24.0855332,35.5672433 C24.8613071,36.3585327 26.113944,36.3637766 26.8918729,35.570289 L27.0296957,35.4297098 C27.8038204,34.6401026 27.798043,33.3540034 27.0260333,32.5665535 L21.5686275,27 L48.9423188,27 Z" id="arrow"></path>
</svg>