<?xml version="1.0" encoding="UTF-8" standalone="no"?>
<svg width="22px" height="22px" viewBox="0 0 22 22" version="1.1" xmlns="http://www.w3.org/2000/svg" xmlns:xlink="http://www.w3.org/1999/xlink">
    <!-- Generator: Sketch 3.6.1 (26313) - http://www.bohemiancoding.com/sketch -->
    <title>Group</title>
    <desc>Created with Sketch.</desc>
    <defs></defs>
    <g id="Home" stroke="none" stroke-width="1" fill="none" fill-rule="evenodd">
        <g id="Desktop-HD-Copy" transform="translate(-1093.000000, -436.000000)" fill="#54A753">
            <g id="Group" transform="translate(1093.000000, 436.000000)">
                <path d="M11,2 C15.9705627,2 20,6.02943725 20,11 C20,15.9705627 15.9705627,20 11,20 C6.02943725,20 2,15.9705627 2,11 C2,6.02943725 6.02943725,2 11,2 L11,2 Z M11,0 C4.92486775,0 0,4.92486775 0,11 C0,17.0751322 4.92486775,22 11,22 C17.0751322,22 22,17.0751322 22,11 C22,4.92486775 17.0751322,0 11,0 L11,0 Z" id="Oval-11"></path>
                <path d="M15.0999925,12.3570188 C14.3972519,13.8080602 12.9938355,14.7928932 11,14.7928932 C9.01211382,14.7928932 7.6916202,13.862123 6.88519862,12.3276799 C6.62826842,11.8387982 6.02366842,11.6507644 5.53478672,11.9076946 C5.04590502,12.1646248 4.85787118,12.7692248 5.11480138,13.2581065 C6.24498089,15.4085897 8.20890692,16.7928932 11,16.7928932 C13.8041013,16.7928932 15.8790898,15.3367914 16.9000075,13.2287676 C17.1407343,12.7317072 16.9329348,12.1336125 16.4358744,11.8928857 C15.938814,11.6521589 15.3407193,11.8599584 15.0999925,12.3570188 L15.0999925,12.3570188 Z" id="Oval-11-Copy"></path>
                <circle id="Oval-13" cx="13.5" cy="8.5" r="1.5"></circle>
                <circle id="Oval-13" cx="8.5" cy="8.5" r="1.5"></circle>
            </g>
        </g>
    </g>
</svg>