<?xml version="1.0" encoding="UTF-8" standalone="no"?>
<svg width="400px" height="400px" viewBox="0 0 400 400" version="1.1" xmlns="http://www.w3.org/2000/svg" xmlns:xlink="http://www.w3.org/1999/xlink">
    <!-- Generator: Sketch 3.6 (26304) - http://www.bohemiancoding.com/sketch -->
    <defs></defs>
    <g fill="none" fill-rule="evenodd">
        <rect width="400" height="400"></rect>
        <path d="M246.71703,204.036946 L263.621908,187.132068 C265.486224,185.267752 268.521949,185.260199 270.389669,187.127919 C272.253588,188.991838 272.255531,192.025668 270.385519,193.895679 L253.480642,210.800557 L270.385519,227.705434 C272.249835,229.56975 272.257388,232.605475 270.389669,234.473195 C268.52575,236.337114 265.491919,236.339056 263.621908,234.469045 L246.71703,217.564168 L229.812153,234.469045 C227.947837,236.333361 224.912112,236.340914 223.044392,234.473195 C221.180473,232.609276 221.178531,229.575446 223.048542,227.705434 L239.95342,210.800557 L223.048542,193.895679 C221.184226,192.031363 221.176673,188.995638 223.044392,187.127919 C224.908311,185.263999 227.942142,185.262057 229.812153,187.132068 L246.71703,204.036946 L246.71703,204.036946 Z M130.0681,232.121838 C140.566312,240.126528 155.624536,239.333912 165.219781,229.738667 C175.67901,219.279438 175.68131,202.323975 165.219781,191.862446 C155.669434,182.312099 140.706624,181.476469 130.213013,189.368619 L130.213013,161.260787 C130.213013,158.297622 127.808804,155.895502 124.856507,155.895502 C121.89819,155.895502 119.5,158.300146 119.5,161.260787 L119.5,230.877815 C119.5,233.84098 121.904209,236.2431 124.856507,236.2431 C127.386993,236.2431 129.507648,234.483681 130.0681,232.121838 L130.0681,232.121838 L130.0681,232.121838 Z M130.213013,210.561819 C130.340201,201.796542 137.485285,194.730175 146.280808,194.730175 C155.155759,194.730175 162.350328,201.924744 162.350328,210.799694 C162.350328,219.674645 155.155759,226.869214 146.280808,226.869214 C137.485285,226.869214 130.340201,219.802846 130.213013,211.037569 L130.213013,210.561819 L130.213013,210.561819 L130.213013,210.561819 Z M227.779782,130.262621 C217.320553,140.72185 217.318253,157.677313 227.779782,168.138842 L246.717893,187.076952 L265.656004,168.138842 C276.115232,157.679612 276.117533,140.72415 265.656004,130.262621 C255.196774,119.803391 238.241312,119.801092 227.779782,130.262621 L227.779782,130.262621 Z M246.717893,165.270251 C255.592844,165.270251 262.787413,158.075682 262.787413,149.200731 C262.787413,140.325781 255.592844,133.131212 246.717893,133.131212 C237.842942,133.131212 230.648373,140.325781 230.648373,149.200731 C230.648373,158.075682 237.842942,165.270251 246.717893,165.270251 L246.717893,165.270251 Z M206.543231,186.696277 C203.584914,186.696277 201.186725,189.086065 201.186725,192.045824 L201.186725,230.894416 C201.186725,233.848889 203.590934,236.243963 206.543231,236.243963 C209.501548,236.243963 211.899738,233.854175 211.899738,230.894416 L211.899738,192.045824 C211.899738,189.091351 209.495529,186.696277 206.543231,186.696277 L206.543231,186.696277 Z M185.117205,155.896365 C182.158888,155.896365 179.760699,158.301009 179.760699,161.26165 L179.760699,230.878677 C179.760699,233.841843 182.164908,236.243963 185.117205,236.243963 C188.075522,236.243963 190.473712,233.839319 190.473712,230.878677 L190.473712,161.26165 C190.473712,158.298485 188.069502,155.896365 185.117205,155.896365 L185.117205,155.896365 Z M206.543231,177.322391 C210.241127,177.322391 213.238865,174.324654 213.238865,170.626758 C213.238865,166.928861 210.241127,163.931124 206.543231,163.931124 C202.845335,163.931124 199.847598,166.928861 199.847598,170.626758 C199.847598,174.324654 202.845335,177.322391 206.543231,177.322391 L206.543231,177.322391 Z" id="blixlogo" fill="#FFFFFF"></path>
    </g>
</svg>